<svg xmlns="http://www.w3.org/2000/svg" width="192" height="192" viewBox="0 0 192 192"><defs><linearGradient id="a" x1="0%" y1="100%" x2="0%" y2="0%"><stop offset="0%"/><stop offset="100%" stop-color="#333"/></linearGradient></defs><rect width="170" height="170" rx="10" ry="10" x="11" y="11" fill="url(#a)"/><path d="M32.236 116.182q.685-3.494 3.596-5.857t6.474-2.363h20.894l5.069-23.771h-19.044q-3.905 0-6.439-3.014-2.398-3.083-1.576-7.124.685-3.562 3.562-5.891t6.439-2.329h20.894l4.453-21.031q.754-3.562 3.665-5.926 2.911-2.363 6.474-2.363 4.11 0 6.508 3.014 2.398 3.014 1.507 7.124l-4.042 19.181h23.497l4.453-21.031q.754-3.562 3.631-5.926 2.877-2.363 6.439-2.363 4.11 0 6.508 3.014 2.466 2.877 1.576 7.124l-4.042 19.181h18.976q3.973 0 6.508 3.014 2.398 3.083 1.576 7.124-.685 3.562-3.562 5.891t-6.439 2.329h-20.894l-5.138 23.771h19.044q3.973 0 6.508 3.014 2.398 3.083 1.576 7.193-.754 3.562-3.596 5.891-2.843 2.329-6.405 2.329h-21.031l-4.384 21.031q-.754 3.562-3.631 5.891t-6.439 2.329q-3.973 0-6.508-2.946-2.398-3.083-1.576-7.124l4.11-19.181h-23.565l-4.521 21.031q-.754 3.562-3.596 5.891-2.843 2.329-6.405 2.329-3.973 0-6.508-2.946-2.398-3.083-1.576-7.124l4.11-19.181h-19.044q-4.042 0-6.508-3.083-2.466-2.877-1.576-7.124zm49.528-8.22h23.497l5.069-23.771h-23.565z" fill="#fff"/></svg>